# xmcd
#
# Track frame offsets: 
#        150
#        9659
#        27445
#        50191
#        65494
#        81592
#        91919
#        109692
#        121053
#        132539
#        138705
#        150232
#        180415
#        200456
#        212755
#
# Disc length: 3038 seconds
#
# Revision: 4
# Processed by: cddbd v1.5.2PL0 Copyright (c) Steve Scherf et al.
# Submitted via: ExactAudioCopy v1.0b3
#
DISCID=d40bdc0f
DTITLE=K&K Studio Singers - 15 Biesiadnych Przebojow
DYEAR=1900
DGENRE=Folk
TTITLE0=Pije Kuba Do Jakuba
TTITLE1=Goralu, Czy Ci Nie Zal
TTITLE2=Hej Sokoly!
TTITLE3=Jak Dobrze Nam Zdobywac Gory
TTITLE4=Szla Dzieweczka Do Laseczka
TTITLE5=Zielony Mosteczek, Hej Bystra Woda
TTITLE6=Marianna
TTITLE7=Uplywa Szybko Zycie
TTITLE8=Czuj, Czuj, Czuwaj
TTITLE9=Idzie Dysc
TTITLE10=Gleboka Studzienka
TTITLE11=Maniuska, Moja Maniuska
TTITLE12=Zagraj Mi Piekny Cyganie
TTITLE13=W Piwnicznej Izbie
TTITLE14=Piesn Pozegnalna
EXTD=
EXTT0=
EXTT1=
EXTT2=
EXTT3=
EXTT4=
EXTT5=
EXTT6=
EXTT7=
EXTT8=
EXTT9=
EXTT10=
EXTT11=
EXTT12=
EXTT13=
EXTT14=
PLAYORDER=
